<svg width="780" height="740" viewBox="0 0 780 740" fill="none" xmlns="http://www.w3.org/2000/svg">
  <rect width="780" height="740" rx="36" fill="#0B100B"/>
  <rect x="28" y="28" width="724" height="684" rx="28" fill="url(#paint0_linear)"/>
  <rect x="56" y="56" width="310" height="170" rx="22" fill="#111711" stroke="#AEB784" stroke-opacity="0.24"/>
  <rect x="80" y="88" width="164" height="18" rx="9" fill="#AEB784"/>
  <rect x="80" y="122" width="226" height="10" rx="5" fill="#DDE4BF" fill-opacity="0.3"/>
  <rect x="80" y="148" width="198" height="10" rx="5" fill="#DDE4BF" fill-opacity="0.2"/>
  <rect x="390" y="56" width="334" height="286" rx="22" fill="#0D120D" stroke="#AEB784" stroke-opacity="0.24"/>
  <rect x="418" y="84" width="140" height="16" rx="8" fill="#F5F7EE"/>
  <rect x="418" y="118" width="278" height="194" rx="16" fill="url(#paint1_linear)"/>
  <rect x="56" y="256" width="310" height="176" rx="22" fill="#0E140E" stroke="#AEB784" stroke-opacity="0.24"/>
  <rect x="82" y="286" width="98" height="12" rx="6" fill="#AEB784"/>
  <rect x="82" y="324" width="256" height="18" rx="9" fill="#F5F7EE"/>
  <rect x="82" y="358" width="230" height="10" rx="5" fill="#DDE4BF" fill-opacity="0.22"/>
  <rect x="82" y="384" width="174" height="10" rx="5" fill="#DDE4BF" fill-opacity="0.16"/>
  <rect x="390" y="372" width="334" height="128" rx="22" fill="#111711" stroke="#AEB784" stroke-opacity="0.24"/>
  <rect x="418" y="402" width="126" height="12" rx="6" fill="#AEB784"/>
  <rect x="418" y="432" width="278" height="16" rx="8" fill="#F5F7EE"/>
  <rect x="418" y="462" width="210" height="10" rx="5" fill="#DDE4BF" fill-opacity="0.22"/>
  <rect x="56" y="462" width="668" height="214" rx="22" fill="#0D120D" stroke="#AEB784" stroke-opacity="0.24"/>
  <rect x="84" y="490" width="168" height="14" rx="7" fill="#AEB784"/>
  <rect x="84" y="526" width="388" height="20" rx="10" fill="#F5F7EE"/>
  <rect x="84" y="560" width="300" height="10" rx="5" fill="#DDE4BF" fill-opacity="0.22"/>
  <rect x="84" y="586" width="240" height="10" rx="5" fill="#DDE4BF" fill-opacity="0.16"/>
  <rect x="550" y="520" width="142" height="108" rx="18" fill="url(#paint2_linear)"/>
  <defs>
    <linearGradient id="paint0_linear" x1="52" y1="36" x2="724" y2="708" gradientUnits="userSpaceOnUse">
      <stop stop-color="#171F17"/>
      <stop offset="0.52" stop-color="#0C110C"/>
      <stop offset="1" stop-color="#1E2716"/>
    </linearGradient>
    <linearGradient id="paint1_linear" x1="418" y1="118" x2="696" y2="312" gradientUnits="userSpaceOnUse">
      <stop stop-color="#AEB784"/>
      <stop offset="1" stop-color="#41431B"/>
    </linearGradient>
    <linearGradient id="paint2_linear" x1="550" y1="520" x2="692" y2="628" gradientUnits="userSpaceOnUse">
      <stop stop-color="#E7ECD0"/>
      <stop offset="1" stop-color="#7D8354"/>
    </linearGradient>
  </defs>
</svg>
