<svg width="760" height="540" viewBox="0 0 760 540" fill="none" xmlns="http://www.w3.org/2000/svg">
  <rect width="760" height="540" fill="#0A0E0A"/>
  <rect x="24" y="24" width="712" height="492" rx="28" fill="#101610" stroke="#AEB784" stroke-opacity="0.22"/>
  <rect x="48" y="48" width="176" height="444" rx="20" fill="#121912"/>
  <rect x="72" y="84" width="104" height="14" rx="7" fill="#AEB784"/>
  <rect x="72" y="126" width="128" height="10" rx="5" fill="#F6F8EF" fill-opacity="0.84"/>
  <rect x="72" y="154" width="96" height="10" rx="5" fill="#F6F8EF" fill-opacity="0.18"/>
  <rect x="72" y="214" width="128" height="10" rx="5" fill="#F6F8EF" fill-opacity="0.84"/>
  <rect x="72" y="242" width="82" height="10" rx="5" fill="#F6F8EF" fill-opacity="0.18"/>
  <rect x="252" y="48" width="460" height="138" rx="20" fill="url(#paint0_linear)"/>
  <rect x="276" y="76" width="164" height="14" rx="7" fill="#101610"/>
  <rect x="276" y="108" width="206" height="12" rx="6" fill="#101610" fill-opacity="0.38"/>
  <rect x="252" y="210" width="220" height="282" rx="20" fill="#121912"/>
  <rect x="496" y="210" width="216" height="132" rx="20" fill="#121912"/>
  <rect x="496" y="360" width="216" height="132" rx="20" fill="#121912"/>
  <path d="M288 422C328 356 370 388 402 314C426 258 470 282 496 238" stroke="#AEB784" stroke-width="8" stroke-linecap="round"/>
  <rect x="528" y="242" width="96" height="10" rx="5" fill="#AEB784"/>
  <rect x="528" y="270" width="148" height="10" rx="5" fill="#F6F8EF" fill-opacity="0.18"/>
  <rect x="528" y="392" width="88" height="10" rx="5" fill="#AEB784"/>
  <rect x="528" y="420" width="132" height="10" rx="5" fill="#F6F8EF" fill-opacity="0.18"/>
  <defs>
    <linearGradient id="paint0_linear" x1="252" y1="48" x2="712" y2="186" gradientUnits="userSpaceOnUse">
      <stop stop-color="#DDE5BE"/>
      <stop offset="1" stop-color="#8B9160"/>
    </linearGradient>
  </defs>
</svg>
